<?xml version="1.0" standalone="no"?>
<!DOCTYPE svg PUBLIC "-//W3C//DTD SVG 20010904//EN"
 "http://www.w3.org/TR/2001/REC-SVG-20010904/DTD/svg10.dtd">
<svg version="1.0" xmlns="http://www.w3.org/2000/svg"
 width="512.000000pt" height="512.000000pt" viewBox="0 0 512.000000 512.000000"
 preserveAspectRatio="xMidYMid meet">
<metadata>
Created by potrace 1.14, written by Peter Selinger 2001-2017
</metadata>
<g transform="translate(0.000000,512.000000) scale(0.100000,-0.100000)"
fill="#000000" stroke="none">
<path d="M83 5102 c-17 -9 -42 -30 -55 -47 l-23 -30 0 -475 0 -475 22 -31 c32
-44 85 -67 141 -61 53 6 88 30 113 77 18 32 19 63 19 397 l0 363 361 0 c403 0
408 1 455 69 44 66 26 159 -42 205 l-38 25 -460 0 c-417 0 -464 -1 -493 -17z"/>
<path d="M4060 5102 c-46 -25 -70 -60 -77 -109 -8 -57 12 -108 55 -141 l35
-27 374 -3 373 -3 0 -362 c0 -334 1 -365 19 -397 26 -49 62 -72 120 -78 39 -3
57 0 84 17 75 46 72 23 75 538 3 444 2 464 -17 501 -41 80 -18 77 -541 80
-439 2 -467 1 -500 -16z"/>
<path d="M969 4227 c-13 -7 -28 -22 -34 -34 -8 -15 -11 -183 -11 -523 l1 -502
27 -23 c25 -22 31 -22 273 -23 136 -1 257 3 270 8 44 17 49 43 50 237 1 198 7
225 54 241 14 4 156 8 315 7 l288 0 24 -30 24 -30 0 -1193 c0 -782 -4 -1200
-10 -1213 -20 -36 -51 -43 -198 -44 -141 -2 -144 -3 -170 -28 l-26 -26 0 -242
c-1 -136 3 -256 9 -273 6 -17 21 -36 34 -42 17 -9 197 -12 674 -12 709 0 685
-2 704 56 5 15 8 136 8 270 l-1 242 -27 27 c-26 26 -29 27 -164 29 -76 1 -146
2 -156 3 -9 0 -26 16 -37 34 -20 31 -20 53 -20 1214 0 724 4 1191 10 1207 18
47 36 50 325 52 149 1 286 -3 306 -7 57 -14 62 -34 63 -243 1 -171 3 -187 22
-213 l21 -28 266 0 c264 0 267 0 289 23 l23 23 0 509 0 509 -23 23 -23 23
-1578 2 c-1203 1 -1584 -1 -1602 -10z"/>
<path d="M90 1129 c-36 -15 -60 -39 -76 -78 -11 -27 -14 -117 -14 -477 0 -491
1 -498 63 -545 l32 -24 465 -3 c439 -2 467 -1 500 16 55 30 75 65 75 132 0 67
-20 102 -75 131 -32 18 -63 19 -397 19 l-363 0 0 363 c0 334 -1 365 -19 397
-10 19 -30 43 -44 54 -30 22 -111 31 -147 15z"/>
<path d="M4904 1126 c-17 -7 -42 -29 -55 -47 l-24 -34 -3 -372 -3 -373 -362 0
c-334 0 -365 -1 -397 -19 -55 -29 -75 -64 -75 -129 0 -43 6 -65 23 -89 45 -63
37 -62 538 -63 405 0 458 1 487 16 42 22 74 60 81 97 3 16 6 228 6 471 0 410
-1 444 -19 476 -10 19 -30 43 -44 54 -33 24 -112 31 -153 12z"/>
</g>
</svg>
